<?xml version="1.0" encoding="utf-8"?>
<!-- Generator: Adobe Illustrator 16.0.0, SVG Export Plug-In . SVG Version: 6.00 Build 0)  -->
<!DOCTYPE svg PUBLIC "-//W3C//DTD SVG 1.1//EN" "http://www.w3.org/Graphics/SVG/1.1/DTD/svg11.dtd">
<svg version="1.1" id="Layer_1" xmlns="http://www.w3.org/2000/svg" xmlns:xlink="http://www.w3.org/1999/xlink" x="0px" y="0px"
	 width="841.89px" height="595.281px" viewBox="0 0 841.89 595.281" enable-background="new 0 0 841.89 595.281"
	 xml:space="preserve">
<g>
	
		<linearGradient id="SVGID_1_" gradientUnits="userSpaceOnUse" x1="-7.3462" y1="1311.041" x2="112.53" y2="1311.041" gradientTransform="matrix(6.687 0 0 6.687 -5.2094 -8469.2949)">
		<stop  offset="0" style="stop-color:#115BC4"/>
		<stop  offset="1" style="stop-color:#05BDFD"/>
	</linearGradient>
	<path fill="url(#SVGID_1_)" d="M101.642,280.588l-30.091-4.681l-13.374-28.754c-0.669-2.006-2.675-3.343-5.35-3.343
		c-2.006,0-4.012,1.337-5.35,3.343l-13.374,28.754L4.68,280.588c-2.006,0-4.012,2.006-4.681,4.012c-0.668,2.006,0,4.681,1.337,6.018
		l22.067,22.065l-5.35,31.431c-0.668,2.006,0.669,4.682,2.006,6.018c2.006,1.338,4.012,1.338,6.018,0.67l26.748-14.713
		l26.748,14.713c0.668,0.668,2.006,0.668,2.674,0.668c1.337,0,2.675-0.668,3.344-1.338c2.006-1.336,2.675-3.344,2.006-6.018
		l-5.35-31.431l22.067-22.065c1.337-1.337,2.006-4.012,1.337-6.018C105.654,281.926,103.648,280.588,101.642,280.588z"/>
</g>
<path fill="#FFFFFF" stroke="#000000" stroke-miterlimit="10" d="M167.843-47.742L167.843-47.742L167.843-47.742z"/>
<g>
	<linearGradient id="SVGID_2_" gradientUnits="userSpaceOnUse" x1="134.3267" y1="304.1611" x2="207.2578" y2="304.1611">
		<stop  offset="0" style="stop-color:#115BC4"/>
		<stop  offset="1" style="stop-color:#05BDFD"/>
	</linearGradient>
	<path fill="url(#SVGID_2_)" d="M206.688,259.461c-6.852,0-12.332-0.245-17.768,0.127c-2.021,0.139-4.5,1.23-5.819,2.726
		c-9.351,10.61-18.471,21.423-27.611,32.218c-0.802,0.948-1.217,2.224-1.813,3.347c-0.527-0.374-1.055-0.748-1.582-1.122
		c0-12.24,0-24.479,0-36.907c-6.231,0-12,0-17.768,0c0,29.663,0,59.326,0,88.989c5.778,0,11.556,0,17.965,0
		c0-15.208,0-30.014,0-46.003c1.817,2.333,2.851,3.588,3.807,4.897c9.214,12.634,18.394,25.292,27.653,37.892
		c0.928,1.262,2.272,3.062,3.497,3.122c6.344,0.315,12.711,0.147,20.01,0.147c-12.459-16.79-24.215-32.633-36.067-48.605
		C182.888,286.836,194.383,273.614,206.688,259.461z"/>
	<linearGradient id="SVGID_3_" gradientUnits="userSpaceOnUse" x1="219.8843" y1="302.8281" x2="316.1733" y2="302.8281">
		<stop  offset="0" style="stop-color:#115BC4"/>
		<stop  offset="1" style="stop-color:#05BDFD"/>
	</linearGradient>
	<path fill="url(#SVGID_3_)" d="M219.884,257.103c0,31.324,0,61.322,0,91.513c5.793,0,11.34,0,17.487,0c0-14.666,0-29.002,0-44.643
		c10.688,13.007,20.485,24.932,30.627,37.273c10.197-12.347,20.18-24.437,30.164-36.525c0.376,0.143,0.753,0.285,1.13,0.428
		c0,14.51,0,29.02,0,43.426c6.028,0,11.424,0,16.881,0c0-30.291,0-60.202,0-91.534c-16.549,20.098-32.246,39.161-48.179,58.512
		C251.885,295.98,236.278,277.02,219.884,257.103z"/>
	<linearGradient id="SVGID_4_" gradientUnits="userSpaceOnUse" x1="622.8433" y1="302.8828" x2="719.0093" y2="302.8828">
		<stop  offset="0" style="stop-color:#115BC4"/>
		<stop  offset="1" style="stop-color:#05BDFD"/>
	</linearGradient>
	<path fill="url(#SVGID_4_)" d="M622.843,257.11c0,31.445,0,61.456,0,91.433c5.914,0,11.463,0,17.619,0c0-14.708,0-29.011,0-44.393
		c10.588,12.88,20.387,24.8,30.49,37.09c10.25-12.413,20.199-24.462,30.148-36.51c0.381,0.199,0.762,0.399,1.143,0.599
		c0,14.405,0,28.811,0,43.327c5.852,0,11.25,0,16.766,0c0-30.302,0-60.305,0-91.487c-16.391,19.918-32.08,38.981-48.057,58.396
		C654.919,296.085,639.259,277.058,622.843,257.11z"/>
	<linearGradient id="SVGID_5_" gradientUnits="userSpaceOnUse" x1="533.8257" y1="304.1357" x2="606.8647" y2="304.1357">
		<stop  offset="0" style="stop-color:#115BC4"/>
		<stop  offset="1" style="stop-color:#05BDFD"/>
	</linearGradient>
	<path fill="url(#SVGID_5_)" d="M589.257,311.641c9.008-5.274,14.137-12.93,14.244-23.582c0.107-10.854-4.676-19.276-14.227-23.937
		c-5.49-2.679-11.99-4.073-18.135-4.457c-11.117-0.695-22.311-0.216-33.471-0.182c-1.26,0.004-2.52,0.302-3.844,0.473
		c0,29.756,0,59.153,0,88.619c5.883,0,11.432,0,17.449,0c0-10.955,0-21.541,0-32.616c3.424,0,6.418,0.297,9.328-0.072
		c4.078-0.518,6.258,1.278,8.258,4.64c5.102,8.581,10.527,16.971,15.953,25.354c0.809,1.248,2.264,2.853,3.492,2.917
		c5.869,0.306,11.764,0.137,18.559,0.137c-7.961-12.093-15.328-23.282-22.816-34.656
		C586.019,313.286,587.693,312.557,589.257,311.641z M574.13,300.158c-1.631,0.279-3.305,0.422-4.959,0.437
		c-5.791,0.052-11.582,0.021-17.811,0.021c0-8.948,0-17.059,0-25.447c7.789,0,15.436-0.556,22.963,0.155
		c7.623,0.721,11.885,5.881,11.82,12.465C586.08,294.405,581.804,298.846,574.13,300.158z"/>
	<linearGradient id="SVGID_6_" gradientUnits="userSpaceOnUse" x1="438.1138" y1="304.2539" x2="514.8667" y2="304.2539">
		<stop  offset="0" style="stop-color:#115BC4"/>
		<stop  offset="1" style="stop-color:#05BDFD"/>
	</linearGradient>
	<path fill="url(#SVGID_6_)" d="M510.89,261.836c-21.682-7.141-41.576-4.04-58.756,11.185c-16.459,14.587-18.539,38.51-5.646,56.098
		c13.859,18.907,43.967,26.777,65.322,16.986c1.17-0.536,2.752-1.854,2.805-2.876c0.279-5.42,0.131-10.863,0.131-16.188
		c-0.779-0.12-0.959-0.209-1.072-0.155c-0.59,0.281-1.211,0.53-1.732,0.913c-8.748,6.437-18.6,7.99-28.971,5.915
		c-12.201-2.441-21.654-8.84-25.598-21.169c-3.443-10.77-0.816-20.552,7.273-28.401c8.824-8.563,19.807-11.742,31.748-9.619
		c6.174,1.097,11.992,4.181,18.098,6.414c-0.15,0.263,0.143-0.012,0.148-0.291c0.07-4.329-0.076-8.669,0.203-12.983
		C515.048,264.496,513.917,262.834,510.89,261.836z"/>
	<linearGradient id="SVGID_7_" gradientUnits="userSpaceOnUse" x1="332.6108" y1="304.2168" x2="397.3076" y2="304.2168">
		<stop  offset="0" style="stop-color:#115BC4"/>
		<stop  offset="1" style="stop-color:#05BDFD"/>
	</linearGradient>
	<path fill="url(#SVGID_7_)" d="M386.313,302.699c-4.067-2.798-8.773-4.674-13.216-6.914c-4.443-2.241-9.042-4.204-13.35-6.675
		c-3.43-1.968-5.248-5.227-4.303-9.295c0.991-4.269,4.274-6.223,8.322-6.829c6.83-1.022,11.511,1.991,14.187,8.503
		c5.191-2.097,10.096-4.08,15.376-6.213c-2.505-6.495-6.686-10.618-12.192-13.399c-8.255-4.167-16.927-4.735-25.705-2.072
		c-9.5,2.882-15.929,8.808-17.306,19.109c-1.417,10.605,3.366,18.037,12.42,22.885c4.968,2.66,10.297,4.64,15.357,7.138
		c3.409,1.684,6.953,3.345,9.87,5.714c5.197,4.223,5.358,11.93,0.116,16.081c-2.687,2.128-6.468,3.596-9.893,3.926
		c-8.574,0.827-14.506-3.605-18.103-11.459c-5.331,2.152-10.322,4.168-15.284,6.172c7.646,21.278,40.002,27.959,56.561,12.208
		C401.023,330.306,399.805,311.979,386.313,302.699z"/>
	<linearGradient id="SVGID_8_" gradientUnits="userSpaceOnUse" x1="774.6792" y1="329.9297" x2="805.9995" y2="329.9297">
		<stop  offset="0" style="stop-color:#115BC4"/>
		<stop  offset="1" style="stop-color:#05BDFD"/>
	</linearGradient>
	<path fill="url(#SVGID_8_)" d="M804.765,319.675c-1.459-6.478-6.854-9.683-13.389-9.829c-7.141-0.16-11.973,2.646-14.459,9.14
		c-1.277,3.339-1.625,7.034-2.238,9.85c0.477,3.49,0.584,6.172,1.236,8.713c2.209,8.604,6.996,12.497,14.967,12.472
		c7.84-0.025,13.209-4.002,14.609-12.742C806.406,331.566,806.041,325.337,804.765,319.675z M795.585,339.324
		c-2.316,4.694-7.262,4.78-9.611,0.177c-3.088-6.049-3.174-12.508-0.219-18.631c0.795-1.65,3.303-3.583,4.879-3.462
		c1.875,0.143,4.268,1.995,5.215,3.763c1.354,2.525,1.598,5.646,2.379,8.763C797.39,333.054,797.007,336.446,795.585,339.324z"/>
	<linearGradient id="SVGID_9_" gradientUnits="userSpaceOnUse" x1="739.2026" y1="330.0029" x2="754.9155" y2="330.0029">
		<stop  offset="0" style="stop-color:#115BC4"/>
		<stop  offset="1" style="stop-color:#05BDFD"/>
	</linearGradient>
	<path fill="url(#SVGID_9_)" d="M739.203,317.437c2.311,0.14,4.266,0.259,7.127,0.432c0,10.647,0,21.013,0,31.396
		c3.266,0,5.961,0,8.586,0c0-13.104,0-25.813,0-38.521c-5.41,0-10.482,0-15.713,0C739.203,313.117,739.203,315.152,739.203,317.437z
		"/>
	<linearGradient id="SVGID_10_" gradientUnits="userSpaceOnUse" x1="761.4829" y1="344.8779" x2="773.6323" y2="344.8779">
		<stop  offset="0" style="stop-color:#115BC4"/>
		<stop  offset="1" style="stop-color:#05BDFD"/>
	</linearGradient>
	<path fill="url(#SVGID_10_)" d="M767.978,339.742c-3.326-0.147-6.082,0.943-6.455,4.664c-0.375,3.738,1.939,5.354,5.232,5.62
		c3.598-0.002,6.682-0.541,6.869-4.845C773.792,341.353,771.388,339.895,767.978,339.742z"/>
</g>
</svg>
